<svg xmlns="http://www.w3.org/2000/svg" xmlns:xlink="http://www.w3.org/1999/xlink" width="500" zoomAndPan="magnify" viewBox="0 0 375 374.999991" height="500" preserveAspectRatio="xMidYMid meet" version="1.0"><defs><g/><clipPath id="f3a43f8fc4"><path d="M 120.359375 77.636719 L 254.609375 77.636719 L 254.609375 187.136719 L 120.359375 187.136719 Z M 120.359375 77.636719 " clip-rule="nonzero"/></clipPath></defs><g clip-path="url(#f3a43f8fc4)"><path fill="#07294d" d="M 144.773438 139.769531 L 144.773438 164.183594 L 187.496094 187.496094 L 230.222656 164.183594 L 230.222656 139.769531 L 187.496094 163.085938 Z M 187.496094 77.636719 L 120.359375 114.257812 L 187.496094 150.878906 L 242.425781 120.910156 L 242.425781 163.085938 L 254.632812 163.085938 L 254.632812 114.257812 Z M 187.496094 77.636719 " fill-opacity="1" fill-rule="nonzero"/></g><g fill="#07294d" fill-opacity="1"><g transform="translate(72.571407, 214.397667)"><g><path d="M 18.03125 -19.140625 L 21.890625 -19.140625 L 21.890625 0 L 17.8125 0 L 17.8125 -12.640625 L 13.25 -6.234375 L 9.984375 -6.234375 L 5.375 -12.453125 L 5.375 0 L 1.265625 0 L 1.265625 -19.140625 L 5.15625 -19.140625 L 11.640625 -10.3125 Z M 18.03125 -19.140625 "/></g></g></g><g fill="#07294d" fill-opacity="1"><g transform="translate(95.872419, 214.397667)"><g><path d="M 11.5625 -13.390625 L 15.640625 -13.390625 L 7.1875 5.34375 L 3.109375 5.34375 L 6.421875 -2.03125 L 0.75 -13.390625 L 4.90625 -13.390625 L 8.390625 -6.40625 Z M 11.5625 -13.390625 "/></g></g></g><g fill="#07294d" fill-opacity="1"><g transform="translate(111.96442, 214.397667)"><g/></g></g><g fill="#07294d" fill-opacity="1"><g transform="translate(119.524429, 214.397667)"><g><path d="M 13.453125 -9.859375 C 14.203125 -9.410156 14.773438 -8.832031 15.171875 -8.125 C 15.566406 -7.425781 15.765625 -6.617188 15.765625 -5.703125 C 15.765625 -4.835938 15.554688 -4.03125 15.140625 -3.28125 C 14.734375 -2.53125 14.148438 -1.867188 13.390625 -1.296875 C 12.703125 -0.773438 11.921875 -0.375 11.046875 -0.09375 C 10.179688 0.1875 9.257812 0.332031 8.28125 0.34375 C 7.3125 0.34375 6.382812 0.210938 5.5 -0.046875 C 4.625 -0.316406 3.84375 -0.722656 3.15625 -1.265625 C 2.132812 -2.046875 1.429688 -2.984375 1.046875 -4.078125 L 4.828125 -5.828125 C 4.828125 -5.648438 4.890625 -5.425781 5.015625 -5.15625 C 5.148438 -4.882812 5.347656 -4.625 5.609375 -4.375 C 5.878906 -4.125 6.226562 -3.90625 6.65625 -3.71875 C 7.09375 -3.539062 7.628906 -3.453125 8.265625 -3.453125 C 8.765625 -3.453125 9.207031 -3.515625 9.59375 -3.640625 C 9.976562 -3.765625 10.300781 -3.921875 10.5625 -4.109375 C 10.832031 -4.304688 11.03125 -4.523438 11.15625 -4.765625 C 11.289062 -5.003906 11.359375 -5.253906 11.359375 -5.515625 C 11.359375 -5.796875 11.265625 -6.0625 11.078125 -6.3125 C 10.890625 -6.570312 10.597656 -6.769531 10.203125 -6.90625 C 9.484375 -7.164062 8.722656 -7.378906 7.921875 -7.546875 C 7.117188 -7.710938 6.335938 -7.925781 5.578125 -8.1875 C 4.828125 -8.457031 4.128906 -8.804688 3.484375 -9.234375 C 2.835938 -9.660156 2.320312 -10.265625 1.9375 -11.046875 C 1.601562 -11.722656 1.4375 -12.453125 1.4375 -13.234375 C 1.4375 -14.097656 1.632812 -14.929688 2.03125 -15.734375 C 2.4375 -16.546875 2.992188 -17.234375 3.703125 -17.796875 C 4.367188 -18.316406 5.113281 -18.710938 5.9375 -18.984375 C 6.769531 -19.265625 7.644531 -19.40625 8.5625 -19.40625 C 9.476562 -19.40625 10.351562 -19.269531 11.1875 -19 C 12.03125 -18.738281 12.785156 -18.34375 13.453125 -17.8125 C 14.097656 -17.332031 14.609375 -16.769531 14.984375 -16.125 L 11.90625 -14.015625 C 11.53125 -14.535156 11.054688 -14.953125 10.484375 -15.265625 C 9.921875 -15.578125 9.289062 -15.734375 8.59375 -15.734375 C 7.613281 -15.734375 6.859375 -15.515625 6.328125 -15.078125 C 5.796875 -14.648438 5.53125 -14.085938 5.53125 -13.390625 C 5.53125 -13.066406 5.675781 -12.78125 5.96875 -12.53125 C 6.269531 -12.28125 6.660156 -12.054688 7.140625 -11.859375 C 7.617188 -11.660156 8.15625 -11.484375 8.75 -11.328125 C 9.34375 -11.171875 9.929688 -11.015625 10.515625 -10.859375 C 11.097656 -10.710938 11.648438 -10.554688 12.171875 -10.390625 C 12.691406 -10.234375 13.117188 -10.054688 13.453125 -9.859375 Z M 13.453125 -9.859375 "/></g></g></g><g fill="#07294d" fill-opacity="1"><g transform="translate(136.291436, 214.397667)"><g><path d="M 6.15625 -4.8125 C 6.15625 -4.175781 6.347656 -3.6875 6.734375 -3.34375 C 7.117188 -3 7.628906 -2.828125 8.265625 -2.828125 C 8.765625 -2.828125 9.269531 -2.925781 9.78125 -3.125 L 9.78125 0 C 9.320312 0.144531 8.84375 0.265625 8.34375 0.359375 C 7.84375 0.460938 7.335938 0.515625 6.828125 0.515625 C 6.253906 0.515625 5.707031 0.441406 5.1875 0.296875 C 4.664062 0.148438 4.195312 -0.09375 3.78125 -0.4375 C 3.363281 -0.789062 3.035156 -1.257812 2.796875 -1.84375 C 2.554688 -2.4375 2.4375 -3.160156 2.4375 -4.015625 L 2.4375 -10.078125 L 0.515625 -10.078125 L 0.515625 -12.578125 L 2.4375 -13.390625 L 2.4375 -16.390625 L 6.15625 -16.390625 L 6.15625 -13.390625 L 9.78125 -13.390625 L 9.78125 -10.078125 L 6.15625 -10.078125 Z M 6.15625 -4.8125 "/></g></g></g><g fill="#07294d" fill-opacity="1"><g transform="translate(146.767443, 214.397667)"><g><path d="M 9.6875 -13.390625 L 13.421875 -13.390625 L 13.421875 0 L 10.234375 0 L 9.6875 -1.03125 C 9.257812 -0.71875 8.769531 -0.46875 8.21875 -0.28125 C 7.664062 -0.09375 7.078125 0 6.453125 0 C 5.960938 0 5.40625 -0.0703125 4.78125 -0.21875 C 4.164062 -0.363281 3.585938 -0.632812 3.046875 -1.03125 C 2.503906 -1.425781 2.050781 -1.972656 1.6875 -2.671875 C 1.320312 -3.367188 1.140625 -4.28125 1.140625 -5.40625 L 1.140625 -13.390625 L 4.890625 -13.390625 L 4.890625 -5.53125 C 4.890625 -5.113281 4.957031 -4.757812 5.09375 -4.46875 C 5.226562 -4.1875 5.40625 -3.957031 5.625 -3.78125 C 5.851562 -3.613281 6.109375 -3.488281 6.390625 -3.40625 C 6.679688 -3.332031 6.984375 -3.296875 7.296875 -3.296875 C 7.523438 -3.296875 7.78125 -3.332031 8.0625 -3.40625 C 8.34375 -3.488281 8.601562 -3.617188 8.84375 -3.796875 C 9.082031 -3.984375 9.28125 -4.21875 9.4375 -4.5 C 9.601562 -4.789062 9.6875 -5.132812 9.6875 -5.53125 Z M 9.6875 -13.390625 "/></g></g></g><g fill="#07294d" fill-opacity="1"><g transform="translate(161.563445, 214.397667)"><g><path d="M 14.71875 -19.703125 L 14.71875 0 L 11.53125 0 L 10.984375 -1.15625 C 10.578125 -0.726562 10.007812 -0.375 9.28125 -0.09375 C 8.550781 0.1875 7.789062 0.328125 7 0.328125 C 6.039062 0.328125 5.15625 0.144531 4.34375 -0.21875 C 3.53125 -0.59375 2.832031 -1.097656 2.25 -1.734375 C 1.664062 -2.378906 1.207031 -3.128906 0.875 -3.984375 C 0.539062 -4.835938 0.375 -5.75 0.375 -6.71875 C 0.375 -7.695312 0.539062 -8.613281 0.875 -9.46875 C 1.207031 -10.320312 1.664062 -11.066406 2.25 -11.703125 C 2.832031 -12.335938 3.53125 -12.835938 4.34375 -13.203125 C 5.15625 -13.578125 6.039062 -13.765625 7 -13.765625 C 7.84375 -13.765625 8.59375 -13.664062 9.25 -13.46875 C 9.90625 -13.269531 10.484375 -12.9375 10.984375 -12.46875 L 10.984375 -19.703125 Z M 10.984375 -6.671875 C 10.984375 -7.367188 10.894531 -7.957031 10.71875 -8.4375 C 10.539062 -8.914062 10.289062 -9.300781 9.96875 -9.59375 C 9.644531 -9.894531 9.269531 -10.113281 8.84375 -10.25 C 8.414062 -10.382812 7.960938 -10.453125 7.484375 -10.453125 C 6.992188 -10.453125 6.535156 -10.351562 6.109375 -10.15625 C 5.691406 -9.957031 5.320312 -9.691406 5 -9.359375 C 4.6875 -9.023438 4.441406 -8.628906 4.265625 -8.171875 C 4.085938 -7.710938 4 -7.226562 4 -6.71875 C 4 -6.195312 4.085938 -5.710938 4.265625 -5.265625 C 4.441406 -4.816406 4.6875 -4.425781 5 -4.09375 C 5.320312 -3.757812 5.691406 -3.492188 6.109375 -3.296875 C 6.535156 -3.097656 6.992188 -3 7.484375 -3 C 8.453125 -3 9.273438 -3.300781 9.953125 -3.90625 C 10.628906 -4.507812 10.972656 -5.429688 10.984375 -6.671875 Z M 10.984375 -6.671875 "/></g></g></g><g fill="#07294d" fill-opacity="1"><g transform="translate(177.628448, 214.397667)"><g><path d="M 11.5625 -13.390625 L 15.640625 -13.390625 L 7.1875 5.34375 L 3.109375 5.34375 L 6.421875 -2.03125 L 0.75 -13.390625 L 4.90625 -13.390625 L 8.390625 -6.40625 Z M 11.5625 -13.390625 "/></g></g></g><g fill="#07294d" fill-opacity="1"><g transform="translate(193.720454, 214.397667)"><g/></g></g><g fill="#07294d" fill-opacity="1"><g transform="translate(201.280466, 214.397667)"><g><path d="M 13.453125 -9.859375 C 14.203125 -9.410156 14.773438 -8.832031 15.171875 -8.125 C 15.566406 -7.425781 15.765625 -6.617188 15.765625 -5.703125 C 15.765625 -4.835938 15.554688 -4.03125 15.140625 -3.28125 C 14.734375 -2.53125 14.148438 -1.867188 13.390625 -1.296875 C 12.703125 -0.773438 11.921875 -0.375 11.046875 -0.09375 C 10.179688 0.1875 9.257812 0.332031 8.28125 0.34375 C 7.3125 0.34375 6.382812 0.210938 5.5 -0.046875 C 4.625 -0.316406 3.84375 -0.722656 3.15625 -1.265625 C 2.132812 -2.046875 1.429688 -2.984375 1.046875 -4.078125 L 4.828125 -5.828125 C 4.828125 -5.648438 4.890625 -5.425781 5.015625 -5.15625 C 5.148438 -4.882812 5.347656 -4.625 5.609375 -4.375 C 5.878906 -4.125 6.226562 -3.90625 6.65625 -3.71875 C 7.09375 -3.539062 7.628906 -3.453125 8.265625 -3.453125 C 8.765625 -3.453125 9.207031 -3.515625 9.59375 -3.640625 C 9.976562 -3.765625 10.300781 -3.921875 10.5625 -4.109375 C 10.832031 -4.304688 11.03125 -4.523438 11.15625 -4.765625 C 11.289062 -5.003906 11.359375 -5.253906 11.359375 -5.515625 C 11.359375 -5.796875 11.265625 -6.0625 11.078125 -6.3125 C 10.890625 -6.570312 10.597656 -6.769531 10.203125 -6.90625 C 9.484375 -7.164062 8.722656 -7.378906 7.921875 -7.546875 C 7.117188 -7.710938 6.335938 -7.925781 5.578125 -8.1875 C 4.828125 -8.457031 4.128906 -8.804688 3.484375 -9.234375 C 2.835938 -9.660156 2.320312 -10.265625 1.9375 -11.046875 C 1.601562 -11.722656 1.4375 -12.453125 1.4375 -13.234375 C 1.4375 -14.097656 1.632812 -14.929688 2.03125 -15.734375 C 2.4375 -16.546875 2.992188 -17.234375 3.703125 -17.796875 C 4.367188 -18.316406 5.113281 -18.710938 5.9375 -18.984375 C 6.769531 -19.265625 7.644531 -19.40625 8.5625 -19.40625 C 9.476562 -19.40625 10.351562 -19.269531 11.1875 -19 C 12.03125 -18.738281 12.785156 -18.34375 13.453125 -17.8125 C 14.097656 -17.332031 14.609375 -16.769531 14.984375 -16.125 L 11.90625 -14.015625 C 11.53125 -14.535156 11.054688 -14.953125 10.484375 -15.265625 C 9.921875 -15.578125 9.289062 -15.734375 8.59375 -15.734375 C 7.613281 -15.734375 6.859375 -15.515625 6.328125 -15.078125 C 5.796875 -14.648438 5.53125 -14.085938 5.53125 -13.390625 C 5.53125 -13.066406 5.675781 -12.78125 5.96875 -12.53125 C 6.269531 -12.28125 6.660156 -12.054688 7.140625 -11.859375 C 7.617188 -11.660156 8.15625 -11.484375 8.75 -11.328125 C 9.34375 -11.171875 9.929688 -11.015625 10.515625 -10.859375 C 11.097656 -10.710938 11.648438 -10.554688 12.171875 -10.390625 C 12.691406 -10.234375 13.117188 -10.054688 13.453125 -9.859375 Z M 13.453125 -9.859375 "/></g></g></g><g fill="#07294d" fill-opacity="1"><g transform="translate(218.047478, 214.397667)"><g><path d="M 7.796875 -13.765625 C 8.753906 -13.765625 9.65625 -13.578125 10.5 -13.203125 C 11.34375 -12.835938 12.078125 -12.335938 12.703125 -11.703125 C 13.335938 -11.066406 13.835938 -10.320312 14.203125 -9.46875 C 14.578125 -8.613281 14.765625 -7.695312 14.765625 -6.71875 C 14.765625 -5.75 14.578125 -4.835938 14.203125 -3.984375 C 13.835938 -3.128906 13.335938 -2.378906 12.703125 -1.734375 C 12.078125 -1.097656 11.34375 -0.59375 10.5 -0.21875 C 9.65625 0.144531 8.753906 0.328125 7.796875 0.328125 C 6.828125 0.328125 5.921875 0.144531 5.078125 -0.21875 C 4.234375 -0.59375 3.492188 -1.097656 2.859375 -1.734375 C 2.234375 -2.378906 1.734375 -3.128906 1.359375 -3.984375 C 0.992188 -4.835938 0.8125 -5.75 0.8125 -6.71875 C 0.8125 -7.695312 0.992188 -8.613281 1.359375 -9.46875 C 1.734375 -10.320312 2.234375 -11.066406 2.859375 -11.703125 C 3.492188 -12.335938 4.234375 -12.835938 5.078125 -13.203125 C 5.921875 -13.578125 6.828125 -13.765625 7.796875 -13.765625 Z M 7.796875 -2.9375 C 8.253906 -2.9375 8.675781 -3.023438 9.0625 -3.203125 C 9.445312 -3.390625 9.785156 -3.640625 10.078125 -3.953125 C 10.378906 -4.265625 10.613281 -4.640625 10.78125 -5.078125 C 10.957031 -5.523438 11.046875 -6.019531 11.046875 -6.5625 C 11.046875 -7.101562 10.957031 -7.609375 10.78125 -8.078125 C 10.613281 -8.546875 10.378906 -8.953125 10.078125 -9.296875 C 9.785156 -9.648438 9.445312 -9.929688 9.0625 -10.140625 C 8.675781 -10.347656 8.253906 -10.453125 7.796875 -10.453125 C 7.347656 -10.453125 6.925781 -10.347656 6.53125 -10.140625 C 6.132812 -9.929688 5.785156 -9.648438 5.484375 -9.296875 C 5.191406 -8.953125 4.957031 -8.546875 4.78125 -8.078125 C 4.613281 -7.609375 4.53125 -7.101562 4.53125 -6.5625 C 4.53125 -6.019531 4.613281 -5.523438 4.78125 -5.078125 C 4.957031 -4.640625 5.191406 -4.265625 5.484375 -3.953125 C 5.785156 -3.640625 6.132812 -3.390625 6.53125 -3.203125 C 6.925781 -3.023438 7.347656 -2.9375 7.796875 -2.9375 Z M 7.796875 -2.9375 "/></g></g></g><g fill="#07294d" fill-opacity="1"><g transform="translate(233.680484, 214.397667)"><g><path d="M 1.328125 -19.734375 L 5.046875 -19.734375 L 5.046875 0 L 1.328125 0 Z M 1.328125 -19.734375 "/></g></g></g><g fill="#07294d" fill-opacity="1"><g transform="translate(239.944487, 214.397667)"><g><path d="M 9.6875 -13.390625 L 13.421875 -13.390625 L 13.421875 0 L 10.234375 0 L 9.6875 -1.03125 C 9.257812 -0.71875 8.769531 -0.46875 8.21875 -0.28125 C 7.664062 -0.09375 7.078125 0 6.453125 0 C 5.960938 0 5.40625 -0.0703125 4.78125 -0.21875 C 4.164062 -0.363281 3.585938 -0.632812 3.046875 -1.03125 C 2.503906 -1.425781 2.050781 -1.972656 1.6875 -2.671875 C 1.320312 -3.367188 1.140625 -4.28125 1.140625 -5.40625 L 1.140625 -13.390625 L 4.890625 -13.390625 L 4.890625 -5.53125 C 4.890625 -5.113281 4.957031 -4.757812 5.09375 -4.46875 C 5.226562 -4.1875 5.40625 -3.957031 5.625 -3.78125 C 5.851562 -3.613281 6.109375 -3.488281 6.390625 -3.40625 C 6.679688 -3.332031 6.984375 -3.296875 7.296875 -3.296875 C 7.523438 -3.296875 7.78125 -3.332031 8.0625 -3.40625 C 8.34375 -3.488281 8.601562 -3.617188 8.84375 -3.796875 C 9.082031 -3.984375 9.28125 -4.21875 9.4375 -4.5 C 9.601562 -4.789062 9.6875 -5.132812 9.6875 -5.53125 Z M 9.6875 -13.390625 "/></g></g></g><g fill="#07294d" fill-opacity="1"><g transform="translate(254.740495, 214.397667)"><g><path d="M 6.15625 -4.8125 C 6.15625 -4.175781 6.347656 -3.6875 6.734375 -3.34375 C 7.117188 -3 7.628906 -2.828125 8.265625 -2.828125 C 8.765625 -2.828125 9.269531 -2.925781 9.78125 -3.125 L 9.78125 0 C 9.320312 0.144531 8.84375 0.265625 8.34375 0.359375 C 7.84375 0.460938 7.335938 0.515625 6.828125 0.515625 C 6.253906 0.515625 5.707031 0.441406 5.1875 0.296875 C 4.664062 0.148438 4.195312 -0.09375 3.78125 -0.4375 C 3.363281 -0.789062 3.035156 -1.257812 2.796875 -1.84375 C 2.554688 -2.4375 2.4375 -3.160156 2.4375 -4.015625 L 2.4375 -10.078125 L 0.515625 -10.078125 L 0.515625 -12.578125 L 2.4375 -13.390625 L 2.4375 -16.390625 L 6.15625 -16.390625 L 6.15625 -13.390625 L 9.78125 -13.390625 L 9.78125 -10.078125 L 6.15625 -10.078125 Z M 6.15625 -4.8125 "/></g></g></g><g fill="#07294d" fill-opacity="1"><g transform="translate(265.216497, 214.397667)"><g><path d="M 5.265625 0 L 1.53125 0 L 1.53125 -13.390625 L 5.265625 -13.390625 Z M 3.40625 -15.234375 C 2.820312 -15.234375 2.332031 -15.429688 1.9375 -15.828125 C 1.539062 -16.222656 1.34375 -16.707031 1.34375 -17.28125 C 1.34375 -17.851562 1.539062 -18.34375 1.9375 -18.75 C 2.332031 -19.15625 2.820312 -19.359375 3.40625 -19.359375 C 3.976562 -19.359375 4.460938 -19.15625 4.859375 -18.75 C 5.253906 -18.34375 5.453125 -17.851562 5.453125 -17.28125 C 5.453125 -16.707031 5.253906 -16.222656 4.859375 -15.828125 C 4.460938 -15.429688 3.976562 -15.234375 3.40625 -15.234375 Z M 3.40625 -15.234375 "/></g></g></g><g fill="#07294d" fill-opacity="1"><g transform="translate(272.182492, 214.397667)"><g><path d="M 7.796875 -13.765625 C 8.753906 -13.765625 9.65625 -13.578125 10.5 -13.203125 C 11.34375 -12.835938 12.078125 -12.335938 12.703125 -11.703125 C 13.335938 -11.066406 13.835938 -10.320312 14.203125 -9.46875 C 14.578125 -8.613281 14.765625 -7.695312 14.765625 -6.71875 C 14.765625 -5.75 14.578125 -4.835938 14.203125 -3.984375 C 13.835938 -3.128906 13.335938 -2.378906 12.703125 -1.734375 C 12.078125 -1.097656 11.34375 -0.59375 10.5 -0.21875 C 9.65625 0.144531 8.753906 0.328125 7.796875 0.328125 C 6.828125 0.328125 5.921875 0.144531 5.078125 -0.21875 C 4.234375 -0.59375 3.492188 -1.097656 2.859375 -1.734375 C 2.234375 -2.378906 1.734375 -3.128906 1.359375 -3.984375 C 0.992188 -4.835938 0.8125 -5.75 0.8125 -6.71875 C 0.8125 -7.695312 0.992188 -8.613281 1.359375 -9.46875 C 1.734375 -10.320312 2.234375 -11.066406 2.859375 -11.703125 C 3.492188 -12.335938 4.234375 -12.835938 5.078125 -13.203125 C 5.921875 -13.578125 6.828125 -13.765625 7.796875 -13.765625 Z M 7.796875 -2.9375 C 8.253906 -2.9375 8.675781 -3.023438 9.0625 -3.203125 C 9.445312 -3.390625 9.785156 -3.640625 10.078125 -3.953125 C 10.378906 -4.265625 10.613281 -4.640625 10.78125 -5.078125 C 10.957031 -5.523438 11.046875 -6.019531 11.046875 -6.5625 C 11.046875 -7.101562 10.957031 -7.609375 10.78125 -8.078125 C 10.613281 -8.546875 10.378906 -8.953125 10.078125 -9.296875 C 9.785156 -9.648438 9.445312 -9.929688 9.0625 -10.140625 C 8.675781 -10.347656 8.253906 -10.453125 7.796875 -10.453125 C 7.347656 -10.453125 6.925781 -10.347656 6.53125 -10.140625 C 6.132812 -9.929688 5.785156 -9.648438 5.484375 -9.296875 C 5.191406 -8.953125 4.957031 -8.546875 4.78125 -8.078125 C 4.613281 -7.609375 4.53125 -7.101562 4.53125 -6.5625 C 4.53125 -6.019531 4.613281 -5.523438 4.78125 -5.078125 C 4.957031 -4.640625 5.191406 -4.265625 5.484375 -3.953125 C 5.785156 -3.640625 6.132812 -3.390625 6.53125 -3.203125 C 6.925781 -3.023438 7.347656 -2.9375 7.796875 -2.9375 Z M 7.796875 -2.9375 "/></g></g></g><g fill="#07294d" fill-opacity="1"><g transform="translate(287.815486, 214.397667)"><g><path d="M 8.1875 -13.390625 C 8.6875 -13.390625 9.238281 -13.316406 9.84375 -13.171875 C 10.457031 -13.023438 11.035156 -12.753906 11.578125 -12.359375 C 12.117188 -11.960938 12.570312 -11.414062 12.9375 -10.71875 C 13.3125 -10.019531 13.5 -9.109375 13.5 -7.984375 L 13.5 0 L 9.75 0 L 9.75 -7.859375 C 9.75 -8.273438 9.679688 -8.625 9.546875 -8.90625 C 9.410156 -9.195312 9.226562 -9.425781 9 -9.59375 C 8.78125 -9.769531 8.523438 -9.894531 8.234375 -9.96875 C 7.941406 -10.050781 7.65625 -10.09375 7.375 -10.09375 C 7.132812 -10.09375 6.875 -10.050781 6.59375 -9.96875 C 6.320312 -9.894531 6.0625 -9.765625 5.8125 -9.578125 C 5.570312 -9.398438 5.367188 -9.164062 5.203125 -8.875 C 5.046875 -8.59375 4.96875 -8.253906 4.96875 -7.859375 L 4.96875 0 L 1.234375 0 L 1.234375 -13.390625 L 4.421875 -13.390625 L 4.96875 -12.359375 C 5.394531 -12.671875 5.878906 -12.921875 6.421875 -13.109375 C 6.960938 -13.296875 7.550781 -13.390625 8.1875 -13.390625 Z M 8.1875 -13.390625 "/></g></g></g></svg>