<?xml version="1.0" standalone="no"?>
<!DOCTYPE svg PUBLIC "-//W3C//DTD SVG 20010904//EN"
 "http://www.w3.org/TR/2001/REC-SVG-20010904/DTD/svg10.dtd">
<svg version="1.0" xmlns="http://www.w3.org/2000/svg"
 width="179.000000pt" height="49.000000pt" viewBox="0 0 179.000000 49.000000"
 preserveAspectRatio="xMidYMid meet">

<g transform="translate(0.000000,49.000000) scale(0.100000,-0.100000)"
fill="#000000" stroke="none">
<path d="M484 417 c-51 -44 -41 -166 15 -197 44 -23 120 -8 148 29 34 46 21
147 -22 175 -37 24 -108 21 -141 -7z m122 -42 c18 -28 14 -85 -7 -111 -16 -19
-58 -18 -81 3 -23 21 -24 89 -1 115 24 27 69 23 89 -7z"/>
<path d="M720 325 c0 -108 1 -115 20 -115 18 0 20 7 20 88 l0 87 51 -87 c45
-79 54 -88 80 -88 l29 0 0 115 c0 108 -1 115 -20 115 -17 0 -19 -8 -22 -82
l-3 -83 -48 83 c-43 74 -51 82 -77 82 l-30 0 0 -115z"/>
<path d="M980 325 l0 -115 70 0 c63 0 70 2 70 20 0 17 -7 20 -45 20 l-45 0 0
95 c0 95 0 95 -25 95 l-25 0 0 -115z"/>
<path d="M1170 325 l0 -115 25 0 25 0 0 115 0 115 -25 0 -25 0 0 -115z"/>
<path d="M1270 325 c0 -108 1 -115 20 -115 18 0 20 7 20 88 l0 87 51 -87 c45
-79 54 -88 80 -88 l29 0 0 115 c0 108 -1 115 -20 115 -17 0 -19 -8 -22 -82
l-3 -83 -48 83 c-43 74 -51 82 -77 82 l-30 0 0 -115z"/>
<path d="M1540 325 l0 -115 65 0 c58 0 65 2 65 20 0 17 -7 20 -40 20 -38 0
-40 2 -40 30 0 28 3 30 35 30 28 0 35 4 35 20 0 16 -7 20 -35 20 -31 0 -35 3
-35 25 0 23 4 25 40 25 33 0 40 3 40 20 0 18 -7 20 -65 20 l-65 0 0 -115z"/>
<path d="M394 351 c-10 -35 -9 -44 3 -48 22 -8 25 2 16 47 l-8 43 -11 -42z"/>
<path d="M87 363 c-4 -3 -7 -57 -7 -119 0 -97 -2 -114 -17 -123 -10 -5 -16
-11 -13 -13 7 -6 142 -93 157 -102 6 -3 44 15 84 41 101 66 96 62 77 74 -16 9-18 26 -18 129 0 66 -3 120 -7 120 -5 -1 -34 -7 -66 -14 -48 -12 -66 -12 -115 0 -68 16 -67 16 -75 7z m233 -95 c13 -4 -18 -76 -46 -109 -13 -14 -12 -18 1-29 28 -23 15 -30 -60 -30 -78 0 -90 8 -53 34 19 13 19 16 5 22 -16 6 -67 97 -67 120 0 7 23 15 54 18 30 4 62 13 72 21 16 11 23 10 50 -15 18 -15 38 -30 44 -32z"/>
<path d="M476 134 c-23 -23 -21 -91 3 -104 28 -14 81 -13 81 3 0 7 -13 12 -31
12 -36 0 -52 26 -38 63 6 16 16 22 39 22 16 0 30 5 30 10 0 16 -67 12 -84 -6z"/>
<path d="M590 85 l0 -65 45 0 c25 0 45 5 45 10 0 6 -13 10 -30 10 -30 0 -30 1
-30 55 0 42 -3 55 -15 55 -12 0 -15 -14 -15 -65z"/>
<path d="M716 98 c-10 -29 -21 -59 -23 -65 -3 -7 2 -13 10 -13 8 0 17 7 21 15
7 19 55 19 62 0 4 -8 13 -15 21 -15 16 0 13 15 -18 88 -26 60 -49 56 -73 -10z
m54 -15 c0 -7 -7 -13 -15 -13 -16 0 -19 9 -9 35 5 13 8 14 15 3 5 -7 9 -19 9
-25z"/>
<path d="M842 133 c-13 -25 -5 -41 29 -59 36 -18 28 -38 -13 -30 -21 4 -28 2
-25 -7 5 -15 31 -21 63 -13 36 9 33 51 -6 71 -35 18 -30 39 6 32 16 -3 24 0
24 9 0 21 -67 18 -78 -3z"/>
<path d="M952 133 c-13 -25 -5 -41 29 -59 36 -18 28 -38 -13 -30 -21 4 -28 2
-25 -7 5 -15 31 -21 63 -13 36 9 33 51 -6 71 -35 18 -30 39 6 32 16 -3 24 0
24 9 0 21 -67 18 -78 -3z"/>
<path d="M1060 85 l0 -65 45 0 c49 0 62 17 18 22 -34 4 -38 32 -5 36 31 5 28
22 -4 22 -34 0 -26 24 9 28 44 5 30 22 -18 22 l-45 0 0 -65z"/>
<path d="M1181 136 c-17 -21 -8 -43 24 -58 36 -16 33 -41 -5 -36 -20 3 -30 0
-30 -9 0 -18 64 -17 80 2 16 20 6 43 -25 57 -33 15 -33 41 0 36 13 -2 25 2 27
7 5 17 -57 17 -71 1z"/>
<path d="M1340 85 c0 -51 3 -65 15 -65 10 0 15 10 15 31 0 27 3 30 28 27 21
-2 28 -9 30 -30 2 -16 9 -28 18 -28 11 0 14 15 14 65 0 51 -3 65 -15 65 -9 0
-15 -9 -15 -25 0 -21 -5 -25 -30 -25 -25 0 -30 4 -30 25 0 16 -6 25 -15 25
-12 0 -15 -14 -15 -65z"/>
<path d="M1490 101 c0 -56 17 -81 56 -81 50 0 64 16 64 75 0 41 -4 55 -14 55
-11 0 -16 -15 -18 -52 -3 -49 -5 -53 -28 -53 -23 0 -25 4 -28 53 -2 37 -7 52
-18 52 -10 0 -14 -13 -14 -49z"/>
<path d="M1650 85 l0 -65 39 0 c47 0 59 13 59 65 -1 53 -13 65 -59 65 l-39 0
0 -65z m68 28 c2 -8 -5 -13 -17 -13 -12 0 -21 6 -21 16 0 18 31 15 38 -3z m-3
-53 c0 -8 -8 -16 -17 -18 -13 -2 -18 3 -18 18 0 15 5 20 18 18 9 -2 17 -10 17
-18z"/>
</g>
</svg>
