<?xml version="1.0" encoding="UTF-8"?>
<svg version="1.1" xmlns="http://www.w3.org/2000/svg">
<path d="M0 0 C165 0 330 0 500 0 C500 39.93 500 79.86 500 121 C335 121 170 121 0 121 C0 81.07 0 41.14 0 0 Z " fill="#004AAD" transform="translate(0,379)"/>
<path d="M0 0 C165 0 330 0 500 0 C500 29.04 500 58.08 500 88 C335 88 170 88 0 88 C0 58.96 0 29.92 0 0 Z " fill="#004AAD" transform="translate(0,0)"/>
<path d="M0 0 C2.35858915 0.69605027 4.71844887 1.38766326 7.07846069 2.07887268 C8.65796697 2.54162319 10.23709045 3.00568232 11.81582642 3.47105408 C18.61799775 5.47176357 25.45573841 7.32053357 32.3125 9.125 C41.40433922 11.53429859 50.40871012 14.15857674 59.39379883 16.93847656 C68.06861236 19.61801477 76.79974791 22.06357091 85.5625 24.4375 C82.45871148 27.07572024 79.74787076 28.14115731 75.8125 29.125 C74.08 29.558125 72.3475 29.99125 70.5625 30.4375 C70.5625 34.3975 70.5625 38.3575 70.5625 42.4375 C71.2225 42.7675 71.8825 43.0975 72.5625 43.4375 C72.5625 46.10416667 72.5625 48.77083333 72.5625 51.4375 C72.99085014 53.23657061 73.45414111 55.02742211 73.9375 56.8125 C76.26585376 65.9272877 77.93226097 75.00859516 77.5625 84.4375 C74.43061623 86.26867102 72.11429405 86.7093057 68.5 86.6875 C67.64277344 86.69265625 66.78554688 86.6978125 65.90234375 86.703125 C63.5625 86.4375 63.5625 86.4375 60.5625 84.4375 C60.9238458 76.57511378 61.68697397 68.93135545 63.0625 61.1875 C63.19309814 60.44894775 63.32369629 59.71039551 63.45825195 58.94946289 C64.42367377 53.71515246 64.42367377 53.71515246 65.5625 51.4375 C66.2225 51.4375 66.8825 51.4375 67.5625 51.4375 C66.9025 50.4475 66.2425 49.4575 65.5625 48.4375 C66.10304054 43.89695946 66.10304054 43.89695946 67.5625 42.4375 C67.79677778 40.42155418 67.97586124 38.399026 68.125 36.375 C68.20878906 35.27027344 68.29257812 34.16554687 68.37890625 33.02734375 C68.43949219 32.17269531 68.50007812 31.31804687 68.5625 30.4375 C67.91104004 30.64318604 67.25958008 30.84887207 66.58837891 31.06079102 C53.17459411 35.28052953 39.73672691 39.26965057 26.13867188 42.8527832 C18.76935763 44.80739437 11.4714103 46.93634795 4.1875 49.1875 C-9.1330519 53.27654219 -9.1330519 53.27654219 -13.3125 54.4375 C-14.11429687 54.664375 -14.91609375 54.89125 -15.7421875 55.125 C-24.46954193 56.13686718 -33.02172735 53.05494804 -41.2890625 50.6484375 C-42.6334079 50.26248765 -43.97792475 49.87713455 -45.32260132 49.49234009 C-48.13953233 48.68467256 -50.95505954 47.87234786 -53.76953125 47.05615234 C-57.3028353 46.0315032 -60.83827535 45.01450573 -64.37467384 44.00059414 C-78.37188449 39.98679814 -92.3515476 35.92413008 -106.25942993 31.60861206 C-111.97311558 29.84323868 -117.67378867 28.29887318 -123.5234375 27.04296875 C-124.15507812 26.84316406 -124.78671875 26.64335937 -125.4375 26.4375 C-125.7675 25.7775 -126.0975 25.1175 -126.4375 24.4375 C-119.4803763 22.41248822 -112.52199553 20.39184559 -105.5625 18.375 C-104.53131042 18.07615906 -103.50012085 17.77731812 -102.43768311 17.46942139 C-89.67644737 13.77500591 -76.90605775 10.15884941 -64.05981445 6.77050781 C-55.04958251 4.37703526 -46.14148151 1.68013075 -37.23828125 -1.08203125 C-36.40635254 -1.33678223 -35.57442383 -1.5915332 -34.71728516 -1.85400391 C-32.75504609 -2.46381519 -30.80398286 -3.10938087 -28.85546875 -3.76171875 C-18.60228912 -6.16389226 -9.75396059 -2.93907371 0 0 Z " fill="#FBFCFD" transform="translate(270.4375,132.5625)"/>
<path d="M0 0 C165 0 330 0 500 0 C500 3.63 500 7.26 500 11 C335 11 170 11 0 11 C0 7.37 0 3.74 0 0 Z " fill="#FDFDFE" transform="translate(0,368)"/>
<path d="M0 0 C165 0 330 0 500 0 C500 3.63 500 7.26 500 11 C335 11 170 11 0 11 C0 7.37 0 3.74 0 0 Z " fill="#F9FBFD" transform="translate(0,88)"/>
<path d="M0 0 C5.88876612 1.20963619 11.55818251 2.7210636 17.25390625 4.63671875 C18.78296726 5.13678947 20.31227166 5.63611651 21.84179688 6.13476562 C24.20956814 6.91091077 26.57533423 7.69181326 28.93725586 8.4855957 C31.24653811 9.25918254 33.56181784 10.01189036 35.87890625 10.76171875 C36.57496475 11.0012175 37.27102325 11.24071625 37.98817444 11.48747253 C44.52427363 13.57030823 50.04083701 12.78869238 56.59375 10.765625 C57.38885986 10.52352295 58.18396973 10.2814209 59.00317383 10.03198242 C60.23910278 9.64490112 60.23910278 9.64490112 61.5 9.25 C62.36713623 8.98485596 63.23427246 8.71971191 64.12768555 8.4465332 C68.29825519 7.16713064 72.45860694 5.85738203 76.61328125 4.52734375 C77.32484375 4.30079102 78.03640625 4.07423828 78.76953125 3.84082031 C80.68829408 3.22721977 82.60402727 2.60416815 84.51953125 1.98046875 C88.01539122 0.9956642 91.40497975 0.48049471 95 0 C95.12681395 7.31385784 95.21435758 14.62743202 95.2746582 21.94213867 C95.29979671 24.43020218 95.33391247 26.91819188 95.37719727 29.40600586 C95.4378743 32.98309541 95.46621734 36.55920835 95.48828125 40.13671875 C95.51408768 41.24834885 95.5398941 42.35997894 95.56648254 43.5052948 C95.56929633 51.25923232 95.56929633 51.25923232 92.57641602 55.15356445 C91.72619873 55.76288818 90.87598145 56.37221191 90 57 C89.43539062 57.4640625 88.87078125 57.928125 88.2890625 58.40625 C78.42349429 64.89066103 66.69480728 67.8236282 55 68 C53.90800293 68.02054443 53.90800293 68.02054443 52.79394531 68.04150391 C47.19308087 68.13564561 41.60037742 68.1115613 36 68 C34.54013672 67.97486328 34.54013672 67.97486328 33.05078125 67.94921875 C21.95840518 67.30751104 8.9714167 62.64557099 1.41069031 54.23126221 C-0.30551168 51.51677795 -0.36381958 49.96455564 -0.34057617 46.77246094 C-0.34034958 45.73168396 -0.34012299 44.69090698 -0.33988953 43.61859131 C-0.32440567 42.50179993 -0.30892181 41.38500854 -0.29296875 40.234375 C-0.28872391 39.08584045 -0.28447906 37.93730591 -0.28010559 36.75396729 C-0.26331333 33.0857397 -0.22565898 29.41806153 -0.1875 25.75 C-0.17245392 23.26302877 -0.15876539 20.77604892 -0.14648438 18.2890625 C-0.11340796 12.19252088 -0.06320256 6.09629969 0 0 Z " fill="#FDFEFE" transform="translate(203,180)"/>
<path d="M0 0 C2.41508799 -0.01370973 4.83016432 -0.02963363 7.245224 -0.0476532 C12.28612068 -0.07433578 17.32558865 -0.06730533 22.36645508 -0.03735352 C28.79894569 -0.00283975 35.22650581 -0.06361941 41.65834904 -0.15110493 C46.63889899 -0.20636376 51.61827833 -0.20528215 56.59905815 -0.18819237 C58.96918103 -0.18773507 61.33938722 -0.20567486 63.70921516 -0.24306679 C84.07261929 -0.519236 84.07261929 -0.519236 91.3085928 5.6001482 C98.75087027 12.86781463 98.75087027 12.86781463 99.33984375 18.05078125 C98.95325274 22.07132778 97.4450541 24.12753642 95.02734375 27.30078125 C95.68734375 27.63078125 96.34734375 27.96078125 97.02734375 28.30078125 C97.02734375 29.29078125 97.02734375 30.28078125 97.02734375 31.30078125 C52.14734375 31.30078125 7.26734375 31.30078125 -38.97265625 31.30078125 C-38.97265625 28.99078125 -38.97265625 26.68078125 -38.97265625 24.30078125 C-38.30451464 24.2974711 -37.63637302 24.29416096 -36.9479847 24.2907505 C-20.70744293 24.20960943 -4.46700381 24.11754649 11.77340508 24.01325417 C19.62707436 23.96308437 27.48073297 23.91664207 35.33447266 23.87890625 C42.17799992 23.84601494 49.02144544 23.80619978 55.86488259 23.75799119 C59.49005617 23.73269756 63.11517533 23.7109249 66.74041367 23.69743729 C70.78262881 23.68226881 74.82458243 23.65164577 78.86669922 23.61962891 C80.07510468 23.61746872 81.28351013 23.61530853 82.52853394 23.61308289 C83.62512329 23.6019194 84.72171265 23.59075592 85.85153198 23.57925415 C86.8083531 23.57372339 87.76517422 23.56819263 88.75098991 23.56249428 C91.22562519 23.5169765 91.22562519 23.5169765 93.02734375 21.30078125 C93.02734375 19.32078125 93.02734375 17.34078125 93.02734375 15.30078125 C49.46734375 14.97078125 5.90734375 14.64078125 -38.97265625 14.30078125 C-38.97265625 10.30078125 -38.97265625 10.30078125 -36.7881012 7.98713684 C-25.58331819 -0.6621073 -13.61340596 -0.06799444 0 0 Z " fill="#F9FBFD" transform="translate(220.97265625,255.69921875)"/>
<path d="M0 0 C2.31279611 1.15639806 4.17409828 2.17409828 6 4 C8.49399065 4.12497615 10.96168329 4.1860288 13.45727539 4.20532227 C14.23770706 4.21522186 15.01813873 4.22512146 15.82221985 4.23532104 C18.41400063 4.26702775 21.00579977 4.2917295 23.59765625 4.31640625 C25.38985178 4.33696787 27.18204237 4.35796413 28.97422791 4.37937927 C33.7006532 4.43468176 38.42712285 4.48405483 43.15362549 4.53222656 C47.97290005 4.58238205 52.79210988 4.63809911 57.61132812 4.69335938 C67.07416351 4.80104089 76.53705499 4.90246351 86 5 C86.74102018 9.19996904 87.1099293 13.1063626 87.0625 17.375 C87.05347656 18.43460938 87.04445313 19.49421875 87.03515625 20.5859375 C87.02355469 21.38257813 87.01195312 22.17921875 87 23 C87.66 23.33 88.32 23.66 89 24 C89 26.66666667 89 29.33333333 89 32 C89.42835014 33.79907061 89.89164111 35.58992211 90.375 37.375 C92.70335376 46.4897877 94.36976097 55.57109516 94 65 C90.86811623 66.83117102 88.55179405 67.2718057 84.9375 67.25 C84.08027344 67.25515625 83.22304688 67.2603125 82.33984375 67.265625 C80 67 80 67 77 65 C77.3613458 57.13761378 78.12447397 49.49385545 79.5 41.75 C79.69589722 40.64217163 79.69589722 40.64217163 79.89575195 39.51196289 C80.86117377 34.27765246 80.86117377 34.27765246 82 32 C82.66 32 83.32 32 84 32 C83.01 30.515 83.01 30.515 82 29 C82.54054054 24.45945946 82.54054054 24.45945946 84 23 C84.23701239 20.14122091 84.42219182 17.30116703 84.5625 14.4375 C84.62727539 13.22803711 84.62727539 13.22803711 84.69335938 11.99414062 C84.79975262 9.99631195 84.90040888 7.9981793 85 6 C74.91562412 6.29959993 64.83213197 6.61978662 54.74924946 6.9662056 C50.06721417 7.12642054 45.38517085 7.27955907 40.70239258 7.41650391 C36.18245382 7.54894767 31.663485 7.7000076 27.14458275 7.86394501 C25.421251 7.92319654 23.69767573 7.97575895 21.97393227 8.021492 C19.5575622 8.08674973 17.14315545 8.17584527 14.7277832 8.27050781 C13.66071136 8.29101448 13.66071136 8.29101448 12.57208252 8.31193542 C7.79691881 8.53328478 5.44906076 9.75238568 2 13 C-1.13871188 14.56935594 -3.53855822 14.35201103 -7 14 C-10.1028186 11.68939041 -11.70086289 10.22646216 -12.625 6.4375 C-12 4 -12 4 -9.9375 1.6875 C-6.26749187 -0.42080254 -4.17797653 -0.52224707 0 0 Z " fill="#F5F8FB" transform="translate(254,152)"/>
<path d="M0 0 C2.64 0 5.28 0 8 0 C8 2.64 8 5.28 8 8 C10.64 8 13.28 8 16 8 C17.485 11.465 17.485 11.465 19 15 C20.32 12.69 21.64 10.38 23 8 C25.31 8 27.62 8 30 8 C28.19284861 13.72264606 26.16800672 19.34318458 24 24.9375 C23.7510498 25.60015869 23.50209961 26.26281738 23.24560547 26.94555664 C21.8673859 30.44706471 21.21731417 31.85512388 18 34 C15.95703125 34.1953125 15.95703125 34.1953125 13.8125 34.125 C12.554375 34.08375 11.29625 34.0425 10 34 C10 32.02 10 30.04 10 28 C11.65 27.67 13.3 27.34 15 27 C14.56661254 25.64451156 14.12802005 24.29068724 13.6875 22.9375 C13.32205078 21.80634766 13.32205078 21.80634766 12.94921875 20.65234375 C11.77786387 17.37929864 10.36939496 14.19525491 9 11 C8.67 16.28 8.34 21.56 8 27 C5.33333333 27 2.66666667 27 0 27 C-0.73992187 27.05800781 -1.47984375 27.11601562 -2.2421875 27.17578125 C-4.90327604 27.31396834 -7.35679513 27.35442004 -10 27 C-13.12492823 24.10372506 -14.79986497 21.46765686 -15.375 17.25 C-14.8528401 12.7246142 -13.15770622 11.2328897 -10 8 C-7.26094655 6.63047327 -5.02912668 6.87378639 -2 7 C-1.34 7.33 -0.68 7.66 0 8 C0 5.36 0 2.72 0 0 Z " fill="#F7F9FC" transform="translate(226,305)"/>
<path d="M0 0 C3.0816964 1.36964285 4.57570471 2.29284118 6.3125 5.1875 C6.539375 5.785625 6.76625 6.38375 7 7 C8.32 6.67 9.64 6.34 11 6 C11.33 4.68 11.66 3.36 12 2 C13.98 2 15.96 2 18 2 C18 3.65 18 5.3 18 7 C19.32 7 20.64 7 22 7 C22 8.65 22 10.3 22 12 C20.68 12 19.36 12 18 12 C18.33 14.31 18.66 16.62 19 19 C20.32 19.33 21.64 19.66 23 20 C23 21.98 23 23.96 23 26 C15.86486486 26.47567568 15.86486486 26.47567568 12.5 24.625 C10.18279397 20.56988944 10.6864296 16.56419136 11 12 C9.68 12 8.36 12 7 12 C7 11.01 7 10.02 7 9 C4.69 9 2.38 9 0 9 C-0.33 8.34 -0.66 7.68 -1 7 C-2.32 7 -3.64 7 -5 7 C-5 7.66 -5 8.32 -5 9 C-4.38511719 9.18175781 -3.77023438 9.36351562 -3.13671875 9.55078125 C-1.92435547 9.92783203 -1.92435547 9.92783203 -0.6875 10.3125 C0.51326172 10.67794922 0.51326172 10.67794922 1.73828125 11.05078125 C4.17406078 12.07305142 5.41821257 12.89261865 7 15 C7.43359375 16.9375 7.43359375 16.9375 7.4375 19 C7.46650391 20.0209375 7.46650391 20.0209375 7.49609375 21.0625 C7 23 7 23 5.3125 24.71875 C1.1069084 27.04887508 -3.34378511 26.75078021 -8 26 C-11.1875 23.6875 -11.1875 23.6875 -13 21 C-13 20.01 -13 19.02 -13 18 C-9.625 17.875 -9.625 17.875 -6 18 C-5.34 18.66 -4.68 19.32 -4 20 C-3.01 20 -2.02 20 -1 20 C-1 19.34 -1 18.68 -1 18 C-1.61488281 17.74605469 -2.22976562 17.49210937 -2.86328125 17.23046875 C-3.67152344 16.88628906 -4.47976562 16.54210937 -5.3125 16.1875 C-6.11300781 15.85105469 -6.91351563 15.51460938 -7.73828125 15.16796875 C-10.00861504 13.99555113 -11.41159399 12.99053412 -13 11 C-13.4375 8.0625 -13.4375 8.0625 -13 5 C-9.0739479 0.15786907 -6.14399577 -0.41654209 0 0 Z " fill="#F4F7FB" transform="translate(166,306)"/>
<path d="M0 0 C44.88 0 89.76 0 136 0 C136 1.32 136 2.64 136 4 C91.12 4 46.24 4 0 4 C0 2.68 0 1.36 0 0 Z " fill="#FEFEFE" transform="translate(182,291)"/>
<path d="M0 0 C2.31 0 4.62 0 7 0 C9.14453125 2.15234375 9.14453125 2.15234375 10.8125 4.9375 C12.82302412 8.59378457 12.82302412 8.59378457 16 11 C16.226875 10.484375 16.45375 9.96875 16.6875 9.4375 C17.82361899 7.32756473 18.9718394 5.27615169 20.25 3.25 C20.62640625 2.63640625 21.0028125 2.0228125 21.390625 1.390625 C23 0 23 0 29 0 C29 8.25 29 16.5 29 25 C26.69 25 24.38 25 22 25 C21.67 21.37 21.34 17.74 21 14 C20.443125 15.2375 20.443125 15.2375 19.875 16.5 C18 19 18 19 15 19.5625 C12 19 12 19 9 15 C8.67 18.3 8.34 21.6 8 25 C5.36 25 2.72 25 0 25 C0 16.75 0 8.5 0 0 Z " fill="#F5F7FB" transform="translate(95,307)"/>
<path d="M0 0 C-6.15812613 10.28686978 -13.06250496 16.13640077 -24 21 C-22.56720703 21.03867187 -22.56720703 21.03867187 -21.10546875 21.078125 C-10.56196598 21.54065154 -2.10485109 23.32971907 7 29 C3.95474409 31.99754955 1.36868886 32.39981958 -2.83911133 32.46777344 C-3.93968872 32.45278809 -3.93968872 32.45278809 -5.0625 32.4375 C-5.81748779 32.43137695 -6.57247559 32.42525391 -7.3503418 32.41894531 C-14.69119712 32.21548914 -21.55400456 30.92673586 -27.28125 26.0625 C-29 24 -29 24 -29.1875 20.75 C-26.22229265 11.38618732 -17.87383891 6.07633019 -9.53125 1.70703125 C-3.49389632 -1.16463211 -3.49389632 -1.16463211 0 0 Z " fill="#F2F6FB" transform="translate(356,259)"/>
<path d="M0 0 C9.93004472 0.44133532 17.78711262 6.15398357 24.44140625 13.16796875 C26.61387173 15.72156852 27.91953579 17.5373308 28.5 20.875 C28 24 28 24 25.625 26.6875 C18.94178081 31.48332859 11.62588262 32.2572778 3.625 32.3125 C2.93486816 32.31805908 2.24473633 32.32361816 1.53369141 32.3293457 C-2.12919373 32.27689068 -4.88674703 32.00365768 -8 30 C2.07571567 20.89935359 12.13256288 21.5287612 25 22 C23.49759766 21.25556641 23.49759766 21.25556641 21.96484375 20.49609375 C12.9022169 15.90446902 4.63802084 11.54886644 0 2 C0 1.34 0 0.68 0 0 Z " fill="#F4F7FB" transform="translate(145,259)"/>
<path d="M0 0 C2.81556994 0.53005669 4.69860307 1.59153773 6.9296875 3.36328125 C8.9296875 6.36328125 8.9296875 6.36328125 8.9296875 9.36328125 C6.6196875 9.36328125 4.3096875 9.36328125 1.9296875 9.36328125 C1.5996875 8.70328125 1.2696875 8.04328125 0.9296875 7.36328125 C-0.3903125 7.36328125 -1.7103125 7.36328125 -3.0703125 7.36328125 C-3.0703125 8.02328125 -3.0703125 8.68328125 -3.0703125 9.36328125 C-2.37164062 9.62882812 -1.67296875 9.894375 -0.953125 10.16796875 C0.41199219 10.69777344 0.41199219 10.69777344 1.8046875 11.23828125 C3.16207031 11.76035156 3.16207031 11.76035156 4.546875 12.29296875 C6.9296875 13.36328125 6.9296875 13.36328125 8.9296875 15.36328125 C9.34725394 19.12137924 9.47561699 21.46131079 7.4921875 24.73828125 C3.78530876 27.08898484 0.29084284 27.58133902 -4.0703125 27.36328125 C-7.09368108 26.01241444 -8.74616644 24.68742731 -11.0703125 22.36328125 C-11.0703125 21.04328125 -11.0703125 19.72328125 -11.0703125 18.36328125 C-8.7603125 18.36328125 -6.4503125 18.36328125 -4.0703125 18.36328125 C-3.7403125 19.02328125 -3.4103125 19.68328125 -3.0703125 20.36328125 C-1.7503125 20.36328125 -0.4303125 20.36328125 0.9296875 20.36328125 C0.9296875 19.70328125 0.9296875 19.04328125 0.9296875 18.36328125 C-0.11832031 17.98236328 -0.11832031 17.98236328 -1.1875 17.59375 C-2.09757812 17.24957031 -3.00765625 16.90539062 -3.9453125 16.55078125 C-4.85023438 16.21433594 -5.75515625 15.87789063 -6.6875 15.53125 C-9.0703125 14.36328125 -9.0703125 14.36328125 -11.0703125 11.36328125 C-11.67870405 7.36527961 -11.40282553 5.84126873 -9.0703125 2.48828125 C-5.68322108 0.0890915 -4.03093297 -0.26619369 0 0 Z " fill="#F1F5FA" transform="translate(273.0703125,305.63671875)"/>
<path d="M0 0 C3.70390021 2.02666238 5.65363011 3.48044516 8 7 C8.31699319 11.41352059 7.74716197 14.97887864 5.125 18.5625 C0.40997926 20.73140954 -3.90559341 20.85543259 -9 20 C-12.1875 18.0625 -12.1875 18.0625 -14 15 C-14.67949487 11.84234737 -14.73078885 9.15152692 -14 6 C-9.74720123 0.62804366 -6.77223161 -0.56435263 0 0 Z " fill="#F3F6FB" transform="translate(376,312)"/>
<path d="M0 0 C3.70390021 2.02666238 5.65363011 3.48044516 8 7 C8.31699319 11.41352059 7.74716197 14.97887864 5.125 18.5625 C0.40997926 20.73140954 -3.90559341 20.85543259 -9 20 C-12.1875 18.0625 -12.1875 18.0625 -14 15 C-14.67949487 11.84234737 -14.73078885 9.15152692 -14 6 C-9.74720123 0.62804366 -6.77223161 -0.56435263 0 0 Z " fill="#F3F6FB" transform="translate(297,312)"/>
<path d="M0 0 C2.31279611 1.15639806 4.17409828 2.17409828 6 4 C8.11605096 4.12391682 10.23621283 4.17799906 12.35571289 4.20532227 C13.01910172 4.21522186 13.68249054 4.22512146 14.36598206 4.23532104 C16.56816995 4.26701737 18.77037945 4.29172534 20.97265625 4.31640625 C22.49580968 4.33696878 24.01895731 4.35796505 25.542099 4.37937927 C29.55831214 4.43467247 33.57457738 4.48404963 37.59088135 4.53222656 C41.68628599 4.58238882 45.78161461 4.63810236 49.87695312 4.69335938 C57.91790455 4.80102954 65.95891941 4.90245467 74 5 C74 5.33 74 5.66 74 6 C65.94764641 6.84864407 57.9438391 7.21170069 49.8515625 7.39453125 C47.35804625 7.4632315 44.86455711 7.53292171 42.37109375 7.60351562 C38.48041357 7.71127499 34.58997008 7.81326891 30.69873047 7.89868164 C26.91564075 7.98391631 23.13389037 8.09335456 19.3515625 8.20703125 C18.18694489 8.22699661 17.02232727 8.24696198 15.82241821 8.26753235 C9.49892377 8.41661441 9.49892377 8.41661441 3.85302734 10.98706055 C3.24152832 11.65133057 2.6300293 12.31560059 2 13 C-1.13871188 14.56935594 -3.53855822 14.35201103 -7 14 C-10.1028186 11.68939041 -11.70086289 10.22646216 -12.625 6.4375 C-12 4 -12 4 -9.9375 1.6875 C-6.26749187 -0.42080254 -4.17797653 -0.52224707 0 0 Z " fill="#2A68BA" transform="translate(254,152)"/>
<path d="M0 0 C2.64 0 5.28 0 8 0 C8 2.64 8 5.28 8 8 C10.64 8 13.28 8 16 8 C16.99 10.31 17.98 12.62 19 15 C20.32 12.69 21.64 10.38 23 8 C25.31 8 27.62 8 30 8 C28.19284861 13.72264606 26.16800672 19.34318458 24 24.9375 C23.7510498 25.60015869 23.50209961 26.26281738 23.24560547 26.94555664 C21.8673859 30.44706471 21.21731417 31.85512388 18 34 C15.95703125 34.1953125 15.95703125 34.1953125 13.8125 34.125 C12.554375 34.08375 11.29625 34.0425 10 34 C10 32.02 10 30.04 10 28 C11.65 27.67 13.3 27.34 15 27 C14.56661254 25.64451156 14.12802005 24.29068724 13.6875 22.9375 C13.32205078 21.80634766 13.32205078 21.80634766 12.94921875 20.65234375 C11.77786387 17.37929864 10.36939496 14.19525491 9 11 C8.67 16.28 8.34 21.56 8 27 C7.67 27 7.34 27 7 27 C7 18.42 7 9.84 7 1 C5.02 1 3.04 1 1 1 C1 3.64 1 6.28 1 9 C0.34 8.67 -0.32 8.34 -1 8 C-0.67 5.36 -0.34 2.72 0 0 Z " fill="#E6EDF6" transform="translate(226,305)"/>
<path d="M0 0 C2.31 0 4.62 0 7 0 C8.32 2.31 9.64 4.62 11 7 C11.99 4.69 12.98 2.38 14 0 C16.31 0 18.62 0 21 0 C20.07481539 5.2375151 18.17800677 9.80517028 16.125 14.6875 C15.59712891 15.9878418 15.59712891 15.9878418 15.05859375 17.31445312 C14.71183594 18.14267578 14.36507812 18.97089844 14.0078125 19.82421875 C13.69473145 20.57791748 13.38165039 21.33161621 13.05908203 22.1081543 C12 24 12 24 9 26 C6.66800612 26.07905064 4.33167378 26.08798769 2 26 C2 24.02 2 22.04 2 20 C3.65 20 5.3 20 7 20 C6.21086057 17.91570807 5.41859037 15.83260131 4.625 13.75 C3.96371094 12.00976562 3.96371094 12.00976562 3.2890625 10.234375 C2.1126581 7.12457912 2.1126581 7.12457912 0.8359375 4.765625 C0 3 0 3 0 0 Z " fill="#F5F8FB" transform="translate(126,313)"/>
<path d="M0 0 C2.6796875 2.03515625 2.6796875 2.03515625 5 5 C5.36771245 7.8387401 5.48630804 10.01820151 5.3125 12.8125 C5.28994141 13.50537109 5.26738281 14.19824219 5.24414062 14.91210938 C5.18562661 16.60901573 5.0959548 18.30479861 5 20 C2.69 20 0.38 20 -2 20 C-2.33 15.71 -2.66 11.42 -3 7 C-4.32 7.33 -5.64 7.66 -7 8 C-7.33 11.96 -7.66 15.92 -8 20 C-10.31 20 -12.62 20 -15 20 C-15 13.73 -15 7.46 -15 1 C-12.69 1 -10.38 1 -8 1 C-5.11138291 -0.44430855 -3.20352299 -0.37688506 0 0 Z " fill="#F5F8FB" transform="translate(400,312)"/>
<path d="M0 0 C2.64 0 5.28 0 8 0 C8.33 4.29 8.66 8.58 9 13 C9.99 13 10.98 13 12 13 C12.33 8.71 12.66 4.42 13 0 C15.31 0 17.62 0 20 0 C20 6.27 20 12.54 20 19 C17.66666667 19 15.33333333 19 13 19 C12.33226562 19.06960938 11.66453125 19.13921875 10.9765625 19.2109375 C6.76471012 19.50478767 4.73921029 19.63103318 1.4375 16.8125 C-1.24378423 11.80177426 -0.29304083 5.48637561 0 0 Z " fill="#EFF4FA" transform="translate(315,313)"/>
<path d="M0 0 C2.31 0 4.62 0 7 0 C7.33 4.62 7.66 9.24 8 14 C9.32 13.34 10.64 12.68 12 12 C12.70535611 9.1213065 12.70535611 9.1213065 12.75 5.875 C12.80671875 4.77929688 12.8634375 3.68359375 12.921875 2.5546875 C12.94765625 1.71164062 12.9734375 0.86859375 13 0 C15.31 0 17.62 0 20 0 C20 6.27 20 12.54 20 19 C17.36 19 14.72 19 12 19 C10.9275 19.20625 9.855 19.4125 8.75 19.625 C5.63319166 20.05001932 4.49840595 19.87380446 2 18 C-0.45199649 14.3741754 -0.20422893 11.02836218 -0.125 6.75 C-0.10695312 5.48671875 -0.08890625 4.2234375 -0.0703125 2.921875 C-0.04710937 1.95765625 -0.02390625 0.9934375 0 0 Z " fill="#F7FAFC" transform="translate(190,313)"/>
<path d="M0 0 C1.98 0 3.96 0 6 0 C6 1.65 6 3.3 6 5 C7.32 5 8.64 5 10 5 C10 6.98 10 8.96 10 11 C8.68 11 7.36 11 6 11 C6.33 12.98 6.66 14.96 7 17 C8.32 17.33 9.64 17.66 11 18 C11 19.98 11 21.96 11 24 C3.70935961 24.36453202 3.70935961 24.36453202 0.75 22.84375 C-1 21 -1 21 -1.390625 18.30078125 C-1.34421875 17.31464844 -1.2978125 16.32851563 -1.25 15.3125 C-1.19585937 13.82169922 -1.19585937 13.82169922 -1.140625 12.30078125 C-1.09421875 11.54152344 -1.0478125 10.78226562 -1 10 C-2.32 10 -3.64 10 -5 10 C-5 8.35 -5 6.7 -5 5 C-3.68 4.67 -2.36 4.34 -1 4 C-0.67 2.68 -0.34 1.36 0 0 Z " fill="#F1F5FA" transform="translate(341,308)"/>
<path d="M0 0 C-15.106955 18.17555523 -15.106955 18.17555523 -25.28125 19.23828125 C-27.1891274 19.24835807 -29.09694454 19.13593253 -31 19 C-25.43559896 9.32278079 -16.45096276 2.86007726 -5.95703125 -0.69140625 C-3.69613289 -1.04791517 -2.16246143 -0.69507689 0 0 Z " fill="#F1F5FA" transform="translate(403,241)"/>
<path d="M0 0 C11.8053131 1.48526716 21.48133208 6.69117305 29 16 C30.21484375 18.2421875 30.21484375 18.2421875 31 20 C23.30964124 20.87060665 18.22630136 18.4625928 12 14 C7.70094726 10.30536354 3.68951561 6.30121541 0 2 C0 1.34 0 0.68 0 0 Z " fill="#F2F6FB" transform="translate(97,240)"/>
<path d="M0 0 C4.51295056 1.6197165 8.4614676 3.69221074 12.5390625 6.2109375 C11.5390625 8.2109375 11.5390625 8.2109375 9.8125 8.8125 C-0.32814185 10.58972589 -9.22044625 8.59469115 -18.4609375 4.2109375 C-21.37109375 2.0390625 -21.37109375 2.0390625 -23.4609375 0.2109375 C-17.41284212 -2.81311019 -6.47147625 -1.47543815 0 0 Z " fill="#F4F7FB" transform="translate(124.4609375,261.7890625)"/>
<path d="M0 0 C9.89967446 5.0998323 14.35009595 13.31214692 18.3125 23.3125 C18.99852415 25.99423076 19.1620703 28.24480483 19 31 C9.21739097 26.30434766 4.59710029 18.02256573 1 8 C0.41631108 5.27468777 0.15806164 2.79242235 0 0 Z " fill="#F4F7FB" transform="translate(124,239)"/>
<path d="M0 0 C0.80735596 -0.00128906 1.61471191 -0.00257813 2.4465332 -0.00390625 C7.41179747 0.08582437 11.6027639 0.7987831 16.3125 2.375 C16.3125 3.035 16.3125 3.695 16.3125 4.375 C10.04155588 7.90437559 4.2562831 8.76162868 -2.8125 8.75 C-3.5638623 8.75128906 -4.31522461 8.75257813 -5.08935547 8.75390625 C-10.2255237 8.65498246 -14.74675009 7.77543932 -19.6875 6.375 C-19.6875 5.715 -19.6875 5.055 -19.6875 4.375 C-13.27219449 0.6808395 -7.25216407 -0.01119485 0 0 Z " fill="#F5F7FB" transform="translate(139.6875,273.625)"/>
<path d="M0 0 C0.87591797 -0.01224609 1.75183594 -0.02449219 2.65429688 -0.03710938 C3.49154297 -0.03904297 4.32878906 -0.04097656 5.19140625 -0.04296875 C5.95783447 -0.04707764 6.7242627 -0.05118652 7.51391602 -0.05541992 C9.4375 0.1875 9.4375 0.1875 11.4375 2.1875 C0.41416739 7.45880793 -9.06514849 11.7581131 -21.5625 10.1875 C-23.453125 8.66796875 -23.453125 8.66796875 -24.5625 7.1875 C-22.62624902 6.20586578 -20.68845461 5.22727546 -18.75 4.25 C-17.67105469 3.70472656 -16.59210938 3.15945313 -15.48046875 2.59765625 C-10.12633365 0.01018266 -5.82480875 0.00430511 0 0 Z " fill="#F5F8FB" transform="translate(387.5625,260.8125)"/>
<path d="M0 0 C0.78552246 -0.00128906 1.57104492 -0.00257813 2.38037109 -0.00390625 C8.88911182 0.11372965 14.38278076 1.48016055 20.25 4.375 C20.25 5.035 20.25 5.695 20.25 6.375 C14.5167501 8.00007083 9.32797788 8.76021313 3.375 8.75 C2.59141113 8.75128906 1.80782227 8.75257813 1.00048828 8.75390625 C-5.19246544 8.64114401 -10.30210127 7.44115406 -15.75 4.375 C-15.75 3.715 -15.75 3.055 -15.75 2.375 C-10.3936121 0.6037077 -5.63117143 -0.00960336 0 0 Z " fill="#F5F8FB" transform="translate(359.75,273.625)"/>
<path d="M0 0 C0.53056583 5.65052605 -1.19338475 9.20765083 -3.75 14.0625 C-4.09804688 14.75666016 -4.44609375 15.45082031 -4.8046875 16.16601562 C-7.60044102 21.617735 -10.65193773 26.72215538 -16 30 C-16.99 30 -17.98 30 -19 30 C-16.81572359 17.60327338 -12.54815838 9.26850829 -3 1 C-1 0 -1 0 0 0 Z " fill="#F5F8FC" transform="translate(376,239)"/>
<path d="M0 0 C3.64146614 3.64146614 3.09618344 9.37638681 3.25 14.3125 C3.17623127 21.00701251 2.18033791 27.38359451 -2.1875 32.625 C-3.0846875 33.305625 -3.0846875 33.305625 -4 34 C-6.44556809 30.2285215 -6.42259366 26.35457466 -6.4375 22 C-6.44064209 21.24976563 -6.44378418 20.49953125 -6.44702148 19.7265625 C-6.30555028 13.0610649 -4.9234169 4.9234169 0 0 Z " fill="#ECF2F9" transform="translate(385,211)"/>
<path d="M0 0 C5.06866134 4.61843641 6.97435826 10.54766758 7.32421875 17.296875 C7.35633909 18.82267249 7.37321296 20.3488655 7.375 21.875 C7.37653076 22.61250488 7.37806152 23.35000977 7.37963867 24.10986328 C7.30262467 27.86763011 7.08653498 30.81177455 5 34 C0.25133943 30.39756785 -0.91794665 25.62351813 -2 20 C-2.638192 13.00934298 -1.77311048 6.75998369 0 0 Z " fill="#EEF3F9" transform="translate(114,211)"/>
<path d="M0 0 C2.31 0 4.62 0 7 0 C7 8.91 7 17.82 7 27 C4.69 27 2.38 27 0 27 C0 18.09 0 9.18 0 0 Z " fill="#F7F9FC" transform="translate(306,305)"/>
<path d="M0 0 C0.66 0 1.32 0 2 0 C6.7141891 10.41050094 5.54156997 20.3752901 2 31 C1.34 31 0.68 31 0 31 C-4.52667419 21.38081735 -4.07306655 11.6803651 -0.65625 1.73046875 C-0.33140625 0.87388672 -0.33140625 0.87388672 0 0 Z " fill="#E8EFF7" transform="translate(106,160)"/>
<path d="M0 0 C0.66 0 1.32 0 2 0 C5.39515153 8.95269122 6.91659006 18.62024578 3.5 27.8125 C3.005 28.864375 2.51 29.91625 2 31 C1.34 31 0.68 31 0 31 C-3.99710683 20.03174853 -3.99710683 10.96825147 0 0 Z " fill="#EBF1F8" transform="translate(392,160)"/>
<path d="M0 0 C6.40440667 7.92751771 7.90260104 17.04179503 7 27 C6.70303978 28.34190295 6.38374483 29.68029216 6 31 C5.34 31 4.68 31 4 31 C3.18082358 29.27398621 2.36993984 27.5440353 1.5625 25.8125 C1.11003906 24.84957031 0.65757812 23.88664062 0.19140625 22.89453125 C-2.8847919 15.42088263 -3.07512278 7.49561179 0 0 Z " fill="#EEF3F9" transform="translate(380,144)"/>
<path d="M0 0 C8.50427574 3.19283335 15.92064784 8.3582284 21 16 C21.9375 19.5 21.9375 19.5 22 22 C15.10149597 21.07533279 10.29263095 16.47851995 5.6875 11.5 C0 3.07407407 0 3.07407407 0 0 Z " fill="#EFF3F9" transform="translate(364,163)"/>
<path d="M0 0 C0.66 0.33 1.32 0.66 2 1 C5.05178643 10.76571657 2.1580739 20.43338427 -2.1328125 29.35546875 C-2.41898437 29.89816406 -2.70515625 30.44085938 -3 31 C-3.66 31 -4.32 31 -5 31 C-8.22529765 19.90812272 -5.09514045 9.91486789 0 0 Z " fill="#EFF4FA" transform="translate(119,144)"/>
<path d="M0 0 C0.33 0 0.66 0 1 0 C1.83700337 10.7182931 -1.07940007 19.1648203 -7.6328125 27.63671875 C-9 29 -9 29 -11 29 C-11.86223819 17.5274418 -7.60987493 10.11145836 -1 1 C-0.67 0.67 -0.34 0.34 0 0 Z " fill="#F2F5FA" transform="translate(118,187)"/>
<path d="M0 0 C8.12307615 4.79053209 16.05707112 11.79083481 19 21 C19.25 24 19.25 24 19 26 C9.79884471 21.59111309 4.10241383 14.69189962 0.59375 5.1640625 C0 3 0 3 0 0 Z " fill="#F1F5FA" transform="translate(358,141)"/>
<path d="M0 0 C6.26340225 5.76579171 11.23144902 13.58643474 12.4453125 22.13671875 C12.43865334 24.47075334 12.33504217 26.69193173 12 29 C6.51014504 26.84921267 4.57966671 22.01517557 2 17 C-0.23669345 11.30659849 -0.21821004 6.02502163 0 0 Z " fill="#F3F6FB" transform="translate(381,187)"/>
<path d="M0 0 C7.08313078 0.1539811 11.72784526 3.44371292 17 8 C24 15.63523132 24 15.63523132 24 19 C14.60452049 18.24836164 8.96593002 12.87464783 3 6 C1.73688667 4.01091123 0.878394 2.195985 0 0 Z " fill="#F2F6FB" transform="translate(87,220)"/>
<path d="M0 0 C-2.65457195 10.61828781 -10.34064222 16.22709481 -19 22 C-19.99 22 -20.98 22 -22 22 C-22 16.27488946 -19.19071717 13.23600204 -15.46875 9.2578125 C-5.34602076 0 -5.34602076 0 0 0 Z " fill="#F2F6FA" transform="translate(136,163)"/>
<path d="M0 0 C-3.60017726 7.35688396 -9.18576094 14.59430616 -16.8125 18.0625 C-20 19 -20 19 -24 19 C-21.41251522 10.46130022 -14.88141793 5.93056051 -7.68359375 1.28515625 C-4.84219851 -0.07557015 -3.10478929 -0.27510791 0 0 Z " fill="#F3F6FB" transform="translate(413,220)"/>
<path d="M0 0 C7.34977139 4.12304249 12.40771288 10.23388736 14.9375 18.3125 C15.78206066 21.45305193 16 23.67503242 16 27 C9.32485518 24.28049655 6.05641135 18.95935865 3.0703125 12.71484375 C1.43903876 8.57712385 0.62594901 4.39098557 0 0 Z " fill="#F2F6FB" transform="translate(91,198)"/>
<path d="M0 0 C6.37785554 4.78339166 10.13300344 10.0652646 12 18 C12.15072493 21.34106926 12.11887124 24.65839728 12 28 C7.1006079 25.91957873 5.32058285 22.6411657 3 18 C0.5722327 11.91131375 -0.36281826 6.53072877 0 0 Z " fill="#F3F6FB" transform="translate(92,176)"/>
<path d="M0 0 C1.39705198 4.19115593 0.1104382 6.33262163 -1.5703125 10.296875 C-5.35878331 17.45977609 -10.74621017 22.52422571 -18 26 C-17.33168377 15.8674636 -12.09364753 10.64911102 -4.8515625 4.0390625 C-3.26352692 2.65844381 -1.63634589 1.32300306 0 0 Z " fill="#F3F6FB" transform="translate(141,141)"/>
<path d="M0 0 C1.73792671 5.21378012 -0.95980608 10.08526419 -3 15 C-5.64877249 19.8525512 -8.29869298 23.95742025 -13 27 C-13.66 27 -14.32 27 -15 27 C-14.71399266 18.276776 -11.96663533 11.10906389 -5.82421875 4.74609375 C-3.93149922 3.08197977 -2.02175164 1.50348536 0 0 Z " fill="#F3F7FB" transform="translate(408,198)"/>
<path d="M0 0 C0.56564106 10.1815391 -2.19734555 19.22300703 -9 27 C-9.99 27.33 -10.98 27.66 -12 28 C-12.74727332 18.24393171 -10.72822246 10.87321061 -4.3125 3.375 C-1.19762846 0 -1.19762846 0 0 0 Z " fill="#F3F6FB" transform="translate(408,176)"/>
<path d="M0 0 C2.31 0 4.62 0 7 0 C7 6.27 7 12.54 7 19 C4.69 19 2.38 19 0 19 C0 12.73 0 6.46 0 0 Z " fill="#F9FBFD" transform="translate(353,313)"/>
<path d="M0 0 C3.78517206 0.25662183 5.01775858 0.68704824 7.6875 3.25 C7.1875 5.1875 7.1875 5.1875 5.6875 7.25 C3.03603265 8.06891972 0.45775253 8.41456946 -2.3125 8.25 C-3.3025 7.59 -4.2925 6.93 -5.3125 6.25 C-4.24825282 0.32062285 -4.24825282 0.32062285 0 0 Z " fill="#F0F4FA" transform="translate(250.3125,154.75)"/>
<path d="M0 0 C0.66 0.33 1.32 0.66 2 1 C1.67 2.32 1.34 3.64 1 5 C4.3 5.99 7.6 6.98 11 8 C10.67 8.66 10.34 9.32 10 10 C9.18273437 9.84660156 8.36546875 9.69320313 7.5234375 9.53515625 C3.55375228 8.9322218 -0.36946033 8.65842036 -4.375 8.4375 C-5.11105469 8.39431641 -5.84710938 8.35113281 -6.60546875 8.30664062 C-8.40348068 8.20156201 -10.20171958 8.10037907 -12 8 C-9.72254211 5.51017465 -7.37664762 3.89631003 -4.4375 2.25 C-3.65246094 1.80140625 -2.86742187 1.3528125 -2.05859375 0.890625 C-1.37925781 0.59671875 -0.69992187 0.3028125 0 0 Z " fill="#1156B2" transform="translate(343,273)"/>
<path d="M0 0 C0.66 0.33 1.32 0.66 2 1 C2 2.32 2 3.64 2 5 C3.32 4.01 4.64 3.02 6 2 C8 3 8 3 9 5 C8.39671875 5.39832031 7.7934375 5.79664063 7.171875 6.20703125 C6.37265625 6.73683594 5.5734375 7.26664063 4.75 7.8125 C3.96109375 8.33457031 3.1721875 8.85664063 2.359375 9.39453125 C0.81382041 10.44622486 -0.6995156 11.54728289 -2.171875 12.69921875 C-4 14 -4 14 -6 14 C-5.79503906 13.39671875 -5.59007813 12.7934375 -5.37890625 12.171875 C-4.97478516 10.97304687 -4.97478516 10.97304687 -4.5625 9.75 C-4.29566406 8.96109375 -4.02882813 8.1721875 -3.75390625 7.359375 C-2.96957954 5.04130241 -2.96957954 5.04130241 -2.52734375 2.765625 C-2.35332031 2.18296875 -2.17929688 1.6003125 -2 1 C-1.34 0.67 -0.68 0.34 0 0 Z " fill="#1559B3" transform="translate(122,161)"/>
<path d="M0 0 C1.7541123 1.07666203 3.50312587 2.16163339 5.25 3.25 C6.71179688 4.15492188 6.71179688 4.15492188 8.203125 5.078125 C10.82808645 6.88186946 12.95302911 8.5631299 15 11 C15 11.99 15 12.98 15 14 C9.56580017 13.86745854 7.17521328 11.73337722 3.515625 8.08203125 C1.65742091 5.52939522 0.87065179 3.01740597 0 0 Z " fill="#F1F5FA" transform="translate(326,288)"/>
<path d="M0 0 C0.33 0.66 0.66 1.32 1 2 C-1.86481006 6.8128809 -5.17213308 11.01434546 -10 14 C-11.32 14 -12.64 14 -14 14 C-13.43471338 10.59359754 -12.47698446 9.16452601 -9.8125 7 C-8.87664062 6.23816406 -8.87664062 6.23816406 -7.921875 5.4609375 C-5.35283856 3.50805208 -2.72515963 1.72815001 0 0 Z " fill="#F0F4FA" transform="translate(173,288)"/>
<path d="M0 0 C3.96 0 7.92 0 12 0 C13.32594359 5.96674616 13.0884587 11.92583615 13 18 C13.66 18.33 14.32 18.66 15 19 C15.042721 20.66611905 15.04063832 22.33382885 15 24 C14 25 14 25 11.4375 25.0625 C10.633125 25.041875 9.82875 25.02125 9 25 C8.375 22.625 8.375 22.625 8 20 C8.66 19.34 9.32 18.68 10 18 C10.30675232 15.10032243 10.51173371 12.28216822 10.625 9.375 C10.66367187 8.57320312 10.70234375 7.77140625 10.7421875 6.9453125 C10.83653931 4.96392444 10.91936215 2.98199355 11 1 C7.37 1 3.74 1 0 1 C0 0.67 0 0.34 0 0 Z " fill="#E2EAF5" transform="translate(328,157)"/>
<path d="M0 0 C0.33 0.66 0.66 1.32 1 2 C4.96 1.34 8.92 0.68 13 0 C13 0.33 13 0.66 13 1 C15.31 1.33 17.62 1.66 20 2 C20 2.33 20 2.66 20 3 C19.20078125 3.01417969 18.4015625 3.02835937 17.578125 3.04296875 C9.08090835 3.41197933 2.65150232 5.40500843 -5 9 C-5.99 9.33 -6.98 9.66 -8 10 C-8.33 9.34 -8.66 8.68 -9 8 C-6.14723863 5.06799526 -3.34920216 2.35684596 0 0 Z " fill="#1E5FB6" transform="translate(371,258)"/>
<path d="M0 0 C3.125 0.375 3.125 0.375 6 1 C6.6875 3.3125 6.6875 3.3125 7 6 C5.875 7.875 5.875 7.875 4 9 C1.3125 8.6875 1.3125 8.6875 -1 8 C-1.625 5.125 -1.625 5.125 -2 2 C-1.34 1.34 -0.68 0.68 0 0 Z " fill="#1D5FB6" transform="translate(220,318)"/>
<path d="M0 0 C2.625 0.375 2.625 0.375 5 1 C5.625 3.3125 5.625 3.3125 6 6 C5.01 7.485 5.01 7.485 4 9 C-0.875 8.125 -0.875 8.125 -2 7 C-2.1875 4.5625 -2.1875 4.5625 -2 2 C-1.34 1.34 -0.68 0.68 0 0 Z " fill="#1558B3" transform="translate(371,318)"/>
<path d="M0 0 C2.625 0.375 2.625 0.375 5 1 C5.625 3.3125 5.625 3.3125 6 6 C5.01 7.485 5.01 7.485 4 9 C-0.875 8.125 -0.875 8.125 -2 7 C-2.1875 4.5625 -2.1875 4.5625 -2 2 C-1.34 1.34 -0.68 0.68 0 0 Z " fill="#1558B3" transform="translate(292,318)"/>
<path d="M0 0 C2.625 0.375 2.625 0.375 5 1 C5.625 3.375 5.625 3.375 6 6 C4 8 4 8 1.5 8.25 C-1 8 -1 8 -3 6 C-2.63318342 3.06546739 -2.13562754 2.13562754 0 0 Z " fill="#E6EDF6" transform="translate(355,302)"/>
<path d="M0 0 C0 1.32 0 2.64 0 4 C-1.65 3.67 -3.3 3.34 -5 3 C-5 2.34 -5 1.68 -5 1 C-7.31 1 -9.62 1 -12 1 C-12 0.67 -12 0.34 -12 0 C-7.6835078 -0.76173392 -4.25566547 -1.16063604 0 0 Z " fill="#2362B8" transform="translate(274,323)"/>
<path d="M0 0 C-0.33 0.99 -0.66 1.98 -1 3 C-4.875 2.125 -4.875 2.125 -6 1 C-8.32817964 0.63239269 -10.6618385 0.29758419 -13 0 C-13 -0.33 -13 -0.66 -13 -1 C-4.57142857 -2.42857143 -4.57142857 -2.42857143 0 0 Z " fill="#1C5EB6" transform="translate(166,324)"/>
<path d="M0 0 C1.65 0.33 3.3 0.66 5 1 C4.67 2.32 4.34 3.64 4 5 C1.525 4.01 1.525 4.01 -1 3 C-0.67 2.01 -0.34 1.02 0 0 Z " fill="#1559B3" transform="translate(270,312)"/>
</svg>
