<svg xmlns="http://www.w3.org/2000/svg" viewBox="0 0 32 32" fill="#ffc600">
  <path d="M16.001 0c-8.836 0-16 7.163-16 16 0 2.835.747 5.573 2.164 8.004L.001 32l8.3-2.164C10.428 31.254 13.204 32 16 32c8.836 0 16-7.163 16-16S24.837 0 16.001 0zm8.883 23.136c-.37 1.045-2.156 1.932-2.966 2.02-.776.086-1.38.37-4.65-1.004-3.895-1.59-6.375-5.518-6.58-5.79-.205-.272-1.573-2.094-1.573-4.002 0-1.908.992-2.85 1.342-3.232.35-.383.767-.48 1.024-.48.254 0 .51.005.736.014.242.01.574-.094.896.682.323.776 1.096 2.688 1.195 2.88.1.192.165.416.033.668-.131.252-.197.416-.387.637-.191.22-.413.496-.59.666-.195.194-.398.404-.17.79.227.386 1.009 1.659 2.161 2.694 1.487 1.321 2.729 1.735 3.105 1.938.386.203.6.186.82-.114.22-.303.949-1.107 1.202-1.48.253-.375.504-.316.842-.19.338.125 2.145 1.013 2.514 1.198.368.184.614.275.705.428.086.145.086.963-.285 2.008z"/>
</svg>
